<?xml version="1.0" standalone="no"?>
<!DOCTYPE svg PUBLIC "-//W3C//DTD SVG 20010904//EN"
 "http://www.w3.org/TR/2001/REC-SVG-20010904/DTD/svg10.dtd">
<svg version="1.0" xmlns="http://www.w3.org/2000/svg"
 width="115.000000pt" height="143.000000pt" viewBox="0 0 115.000000 143.000000"
 preserveAspectRatio="xMidYMid meet">
<metadata>
Created by potrace 1.13, written by Peter Selinger 2001-2015
</metadata>
<g transform="translate(0.000000,143.000000) scale(0.100000,-0.100000)"
fill="#000000" stroke="none">
<path d="M0 716 c0 -388 2 -706 4 -706 2 0 130 72 285 160 l282 160 32 -16
c18 -9 142 -80 275 -156 134 -77 250 -142 258 -145 12 -4 14 98 14 701 0 388
-2 706 -5 706 -3 0 -132 -72 -286 -161 l-281 -160 -272 155 c-150 85 -280 158
-289 162 -16 6 -17 -42 -17 -700z m296 342 c51 -29 94 -56 94 -60 0 -3 -26
-21 -57 -38 -32 -18 -77 -44 -100 -57 l-43 -25 0 116 c0 64 3 116 6 116 3 0
48 -24 100 -52z m664 -64 l0 -116 -22 14 c-13 8 -58 34 -100 58 -43 24 -78 46
-78 49 0 7 181 111 193 111 4 0 7 -52 7 -116z m-243 -195 c80 -45 141 -85 136
-89 -4 -4 -68 -42 -142 -83 l-134 -77 -143 82 c-79 45 -141 84 -138 87 6 7
267 159 273 160 3 1 69 -36 148 -80z m-379 -332 c48 -27 48 -26 -33 -72 -27
-15 -65 -36 -82 -47 l-33 -20 0 112 0 111 53 -29 c28 -17 71 -41 95 -55z m618
-124 c-4 -5 -136 65 -169 89 -15 12 -7 19 75 65 l93 52 3 -101 c1 -55 1 -103
-2 -105z"/>
</g>
</svg>
